<svg width="456" height="45" viewBox="0 0 456 45" fill="none" xmlns="http://www.w3.org/2000/svg">
<path d="M27.2941 36.95C51.3198 34.1918 75.4286 32.8448 99.7038 31.7543C89.0626 32.2034 99.9532 31.7543 102.364 31.6902C105.357 31.6261 108.35 31.4978 111.343 31.4336C117.578 31.2412 123.813 31.1129 130.048 31.0488C142.268 30.7922 154.489 30.6639 166.71 30.5356C216.008 29.9583 265.224 29.4451 314.522 28.8678C342.788 28.5471 371.053 28.2264 399.236 27.9057C404.639 18.6689 410.043 9.49624 415.53 0.259449C323.75 4.49298 231.97 8.72651 140.19 12.96C115.167 14.1146 90.2265 15.2692 65.2032 16.4238C57.8042 16.7446 47.745 19.4386 41.51 22.6458C37.1039 24.955 33.0303 27.4567 30.7857 31.2412C25.4651 40.2214 39.9304 43.8776 48.992 44.0701C144.596 46.1868 240.2 42.6589 335.721 40.6704C361.326 40.1573 386.849 39.7082 412.454 39.5158C420.85 39.4517 429.247 38.3612 436.978 35.7954C442.465 33.9994 450.612 30.5356 453.688 26.2379C456.016 23.0307 457.512 19.0538 453.522 16.039C449.199 12.7676 442.382 11.5489 436.563 11.613C340.959 12.3186 245.438 16.2314 149.834 16.7446C124.228 16.8728 98.623 16.7446 73.1009 16.2314C67.6972 25.4682 62.2935 34.6408 56.8066 43.8776C148.587 39.6441 240.366 35.4106 332.146 31.1129C357.17 29.9583 382.11 28.8037 407.133 27.6491C414.532 27.3284 424.591 24.6343 430.826 21.4271C435.233 19.182 439.306 16.6804 441.551 12.8317C446.705 4.04397 432.489 -0.125418 423.344 0.00287107C373.048 0.516026 322.586 1.09333 272.207 1.67063C222.825 2.18378 173.444 2.18378 124.062 3.78739C94.4663 4.74956 64.9538 6.28902 35.6075 9.62453C27.4603 10.5226 18.9807 12.4469 11.9143 15.8465C7.92385 17.835 0.857461 22.0044 0.109255 26.2379C-1.63656 36.95 17.9831 38.0405 27.2941 36.95Z" fill="#FFC247"/>
</svg>
