<svg width="119" height="119" viewBox="0 0 119 119" fill="none" xmlns="http://www.w3.org/2000/svg">
<path d="M45.9878 7.86807C32.3678 8.67489 26.6824 13.8882 16.6861 23.0735C6.68976 32.2588 0.816924 45.7885 1.00435 59.3182C1.06683 61.6766 1.25426 64.0971 2.06646 66.3314C3.00362 68.938 4.75297 71.1723 6.43985 73.4065C10.4384 78.5578 14.3744 83.709 18.3729 88.9223C26.4949 99.473 35.5541 110.644 48.4868 113.996C58.2957 116.54 68.8543 113.996 77.7261 109.217C86.5978 104.438 94.095 97.4249 101.342 90.4738C105.528 86.4398 109.839 82.2815 112.213 77.0062C115.962 68.7518 114.525 59.1321 111.714 50.5674C109.214 42.8095 105.591 35.362 101.092 28.5971C97.0314 22.4529 92.0957 16.6189 85.6606 12.8952C74.2273 6.13031 73.0403 5.19936 59.7952 6.50268C58.4832 6.62681 49.4865 7.61982 45.9878 7.86807Z" fill="#FFC247"/>
<path d="M86.8133 11.3277C63.6968 34.1048 38.9799 60.2505 17.9876 85.0136C16.6756 86.5031 18.9247 88.7374 20.1743 87.1858C41.1665 62.4227 65.8835 36.277 89 13.4999C90.437 12.1345 88.1878 9.90024 86.8133 11.3277Z" fill="black"/>
<path d="M96.5219 21.523C74.0926 46.2861 52.1008 71.4216 30.6087 96.9295C29.2967 98.481 31.5458 100.653 32.7954 99.1017C54.2875 73.5317 76.2793 48.3963 98.7086 23.6952C100.083 22.2678 97.8339 20.0335 96.5219 21.523Z" fill="black"/>
<path d="M16.2394 86.8755C14.0527 93.268 14.5525 100.529 10.9913 106.487C10.1166 107.915 11.8035 109.28 13.1155 108.598C19.5507 105.494 26.0483 102.391 32.4834 99.226C34.2952 98.3571 32.7333 95.6884 30.9215 96.5573C24.4863 99.6604 17.9887 102.764 11.5536 105.929C12.2408 106.612 12.9906 107.356 13.6778 108.039C17.4264 101.833 16.9891 94.3851 19.2383 87.6823C19.9255 85.8204 16.9266 85.0136 16.2394 86.8755Z" fill="black"/>
<path d="M22.8599 103.26C23.3597 101.646 22.485 100.343 21.5479 99.1018C20.4858 97.7364 19.3612 96.4951 18.1117 95.3159C16.6747 93.9506 14.4255 96.1228 15.925 97.4881C16.7372 98.2329 17.5494 99.0397 18.2366 99.9086C18.6115 100.343 20.0484 101.708 19.861 102.391C19.2362 104.315 22.2976 105.122 22.8599 103.26Z" fill="black"/>
<path d="M19.9847 89.2959C22.4837 88.0547 24.9828 89.7924 26.5447 91.7164C27.8567 93.3921 30.0434 96.247 29.6061 98.4812C29.1688 100.405 32.2301 101.274 32.605 99.288C33.4172 95.5022 30.6682 91.4681 28.1691 88.7994C25.6076 86.1307 21.859 84.8894 18.4227 86.6272C16.6109 87.5582 18.1728 90.2269 19.9847 89.2959Z" fill="black"/>
<path d="M88.4994 14.1038C93.0603 14.29 96.3715 17.8276 96.3091 22.3582C96.3091 24.3442 99.4329 24.3442 99.4329 22.3582C99.4954 16.0898 94.7471 11.2489 88.4994 11.0007C86.5002 10.9386 86.5002 14.0418 88.4994 14.1038Z" fill="black"/>
<path d="M19.6721 10.6624C26.9194 15.5034 34.2292 20.1581 41.2266 25.2472C47.2869 29.6537 52.8473 35.86 59.9697 38.4046C61.844 39.0873 62.6562 36.1083 60.7819 35.4256C56.9708 34.0602 53.9719 31.3915 50.8481 28.8469C47.9116 26.4264 44.9127 24.1301 41.7889 21.8958C35.0414 17.0549 28.1064 12.5864 21.1715 7.99374C19.6096 6.87661 18.0477 9.60738 19.6721 10.6624Z" fill="black"/>
<path d="M75.6481 49.2652C79.2093 51.0651 82.7705 52.8649 86.1443 54.975C89.5805 57.1472 92.4544 59.8159 95.4533 62.5467C101.389 67.8841 108.823 71.67 115.571 75.8282C117.258 76.8832 118.82 74.2145 117.133 73.1595C110.01 68.6909 102.201 64.6568 96.0781 58.885C90.5177 53.6096 84.02 49.9479 77.2101 46.5965C75.4607 45.6656 73.8988 48.3343 75.6481 49.2652Z" fill="black"/>
<path d="M17.4219 10.6621C13.6733 16.9925 9.98716 23.447 6.48845 29.9016C5.55129 31.6393 8.2378 33.253 9.17496 31.4532C12.7361 24.9986 16.3598 18.5441 20.1084 12.2136C21.1081 10.5379 18.4215 8.98637 17.4219 10.6621Z" fill="black"/>
<path d="M6.67116 31.8876C17.4797 41.8797 29.4752 50.5064 42.408 57.6437C44.1573 58.6367 45.7192 55.9059 43.9699 54.975C31.2871 47.9619 19.4789 39.5213 8.85785 29.7154C7.3584 28.35 5.17171 30.5222 6.67116 31.8876Z" fill="black"/>
<path d="M58.3505 70.5526C73.0326 79.4276 85.403 91.7782 101.085 99.1637C102.897 100.033 104.458 97.3638 102.647 96.4949C87.0274 89.1095 74.657 76.7589 59.9124 67.8839C58.2255 66.8288 56.6636 69.4976 58.3505 70.5526Z" fill="black"/>
<path d="M102.958 99.2258C109.144 92.0886 113.205 83.7101 117.141 75.2075C117.953 73.4077 115.266 71.8561 114.454 73.6559C110.643 81.8482 106.77 90.1026 100.772 97.0536C99.4597 98.5431 101.646 100.715 102.958 99.2258Z" fill="black"/>
<path d="M24.9876 13.8895C23.5506 16.8065 22.0512 19.7855 20.6142 22.7025C19.7395 24.5023 22.426 26.0539 23.3007 24.254C24.7377 21.3371 26.2371 18.3581 27.6741 15.4411C28.5488 13.7033 25.8623 12.0897 24.9876 13.8895Z" fill="black"/>
<path d="M32.0439 18.1098C30.357 21.7715 28.6701 25.4332 26.9832 29.0949C26.171 30.8947 28.8575 32.4463 29.6697 30.6465C31.3566 26.9848 33.0435 23.3231 34.7304 19.6613C35.605 17.8615 32.9185 16.3099 32.0439 18.1098Z" fill="black"/>
<path d="M39.9762 22.8888C38.2893 26.6126 36.415 30.1502 34.2283 33.6257C33.1662 35.3014 35.8527 36.853 36.9148 35.1773C39.1015 31.7638 40.9758 28.1642 42.6627 24.4404C43.4749 22.6406 40.7884 21.089 39.9762 22.8888Z" fill="black"/>
<path d="M48.1044 29.2808C46.2301 32.508 44.4183 35.8594 42.7939 39.2108C41.9192 41.0107 44.6057 42.5622 45.4804 40.7624C47.1673 37.411 48.9166 34.1217 50.7909 30.8323C51.853 29.0946 49.1665 27.543 48.1044 29.2808Z" fill="black"/>
<path d="M53.7288 34.8666C52.3543 37.5974 50.8549 40.204 49.168 42.7486C48.0434 44.4243 50.7299 45.9759 51.8545 44.3002C53.5414 41.7556 55.1033 39.149 56.4153 36.4182C57.29 34.6184 54.6035 33.0668 53.7288 34.8666Z" fill="black"/>
<path d="M77.8361 49.9476C76.7115 52.9887 75.2745 55.8435 73.6501 58.6364C72.588 60.3741 75.337 61.9257 76.3366 60.188C78.1484 57.2089 79.6479 54.0437 80.835 50.7544C81.5222 48.8925 78.5233 48.0236 77.8361 49.9476Z" fill="black"/>
<path d="M84.2726 53.5476C82.8357 56.899 81.3362 60.1883 79.6494 63.4156C78.7747 65.2154 81.4612 66.767 82.3359 64.9671C84.0852 61.4916 85.7096 57.954 87.2715 54.3544C88.0213 52.5546 85.0224 51.7477 84.2726 53.5476Z" fill="black"/>
<path d="M90.9631 58.947C89.9635 62.6707 88.3391 66.0221 86.1524 69.1873C85.0278 70.863 87.7143 72.4146 88.8389 70.7389C91.1505 67.3875 92.8999 63.7258 93.962 59.7538C94.4618 57.8298 91.4629 57.023 90.9631 58.947Z" fill="black"/>
<path d="M97.6431 64.4086C96.5185 68.0703 95.019 71.5459 93.2072 74.8973C92.27 76.635 94.9565 78.2487 95.8937 76.4488C97.8305 72.8492 99.3924 69.1254 100.642 65.2154C101.267 63.2915 98.2678 62.4847 97.6431 64.4086Z" fill="black"/>
<path d="M107.018 69.1874C105.331 72.6009 103.832 76.0764 102.52 79.614C101.832 81.4759 104.831 82.2827 105.518 80.4208C106.768 77.1315 108.143 73.9042 109.704 70.739C110.642 68.9392 107.955 67.3876 107.018 69.1874Z" fill="black"/>
</svg>
