<svg width="110" height="110" viewBox="0 0 110 110" fill="none" xmlns="http://www.w3.org/2000/svg">
<path d="M44.4515 10.4015C32.1138 11.1373 26.9637 15.8912 17.9085 24.2673C8.8533 32.6434 3.53338 44.981 3.70316 57.3753C3.75976 59.5259 3.92954 61.7332 4.66528 63.7706C5.5142 66.1476 7.09886 68.185 8.62692 70.2224C12.249 74.9198 15.8145 79.6172 19.4366 84.3711C26.7939 93.9923 35.0002 104.179 46.7153 107.235C55.6007 109.556 65.1653 107.235 73.2017 102.878C81.2382 98.5199 88.0296 92.1246 94.5946 85.786C98.3865 82.1073 102.292 78.3155 104.442 73.5049C107.838 65.9778 106.536 57.2056 103.989 49.3955C101.726 42.3211 98.4431 35.5297 94.3682 29.3608C90.6896 23.7579 86.2186 18.438 80.3893 15.0423C69.9758 8.93007 68.9005 8.08115 56.9024 9.26964C55.7705 9.32624 47.6208 10.2318 44.4515 10.4015Z" fill="#FFC247"/>
<path d="M12.9877 50.0178C12.3651 54.4322 12.0256 58.8466 12.1388 63.3176C12.1388 64.1099 12.7613 64.6759 13.5536 64.7325C21.0242 65.1852 28.4947 65.5814 36.0218 66.0342C37.946 66.1474 42.0209 67.2793 43.4358 65.5248C44.2281 64.5627 44.1715 62.4121 44.3413 61.2236C44.6243 59.356 44.9072 57.5449 45.1902 55.6773C45.4732 53.8097 46.6617 50.6403 44.794 49.2255C43.0396 47.8672 38.9648 48.8859 36.9273 48.9991C29.5134 49.3953 22.0429 49.6782 14.7421 47.9804C12.9877 47.5842 12.1954 50.3008 14.0064 50.6969C19.2697 51.942 24.6462 52.225 30.0794 52.1118C32.9091 52.0552 35.7388 51.8854 38.5686 51.7157C39.0779 51.6591 42.5302 51.1497 42.8132 51.4893C43.3792 52.1684 42.5868 54.6586 42.4171 55.4509C42.1341 57.262 42.2473 62.4121 40.4928 63.3742C39.7005 63.827 36.9273 63.1478 36.0218 63.0912C34.5504 62.978 33.0223 62.9214 31.5508 62.8083C25.5518 62.4687 19.5527 62.1291 13.6102 61.7895C14.063 62.2423 14.5723 62.7517 15.0251 63.2044C14.9119 59.0164 15.1949 54.8284 15.7608 50.6969C15.9872 48.9991 13.2707 48.2068 12.9877 50.0178Z" fill="black"/>
<path d="M54.8613 50.8669C54.8047 54.0363 54.8047 57.149 54.7481 60.3183C54.7481 61.9595 54.2387 64.2799 55.88 65.2421C57.5778 66.2608 60.8603 65.4118 62.8412 65.4684C65.9539 65.5816 69.0666 65.9778 72.1227 66.374C74.8393 66.7135 77.4993 67.1097 80.2158 67.3927C81.8571 67.5624 84.7434 68.2982 85.9319 66.7701C87.0638 65.3552 86.7242 62.4689 86.8374 60.7711C87.0072 57.4885 86.894 54.2626 86.7242 50.9801C86.6676 50.018 85.8753 49.4521 84.9132 49.6218C75.4052 51.2065 65.7275 51.0933 56.2762 49.3955C54.5217 49.0559 53.7294 51.8291 55.5404 52.112C65.5577 53.9231 75.6316 53.9797 85.7055 52.3384C85.083 51.8856 84.517 51.4329 83.8945 50.9801C84.0077 53.1307 84.1209 55.3379 84.1209 57.4885C84.1209 58.5639 84.0643 59.6392 84.0643 60.7711C84.0643 61.3936 84.1775 63.4876 83.8379 63.997C82.9324 65.525 79.1405 64.3931 77.6124 64.2233C75.5184 63.997 73.4244 63.6574 71.2738 63.3744C69.1798 63.0914 67.0858 62.8651 64.9352 62.6953C63.0675 62.5821 60.4076 63.0914 58.5965 62.6387C58.257 62.6387 57.9174 62.6953 57.5212 62.6953C57.5212 62.0727 57.5212 61.4502 57.5212 60.7711C57.5212 59.8655 57.5212 58.9034 57.5778 57.9979C57.5778 55.5643 57.6344 53.1873 57.6344 50.7537C57.691 49.0559 54.8613 49.0559 54.8613 50.8669Z" fill="black"/>
<path d="M45.1278 59.3563C48.4669 59.2431 51.806 59.1866 55.1451 59.1866C56.9562 59.1866 56.9562 56.3568 55.1451 56.3568C51.806 56.3568 48.4669 56.4134 45.1278 56.5266C43.3168 56.5832 43.3168 59.4129 45.1278 59.3563Z" fill="black"/>
<path d="M28.4383 75.203C31.9472 84.0884 42.4739 89.7479 51.812 89.0687C60.5842 88.4462 68.5075 82.1641 70.3752 73.4485C70.7713 71.6941 68.0548 70.9017 67.6586 72.7128C66.0174 80.1833 59.3958 85.7296 51.812 86.2956C43.8321 86.9181 34.211 82.2207 31.1549 74.5238C30.5323 72.7694 27.7592 73.5051 28.4383 75.203Z" fill="black"/>
<path d="M13.9462 65.1854C14.0593 72.9389 14.2857 81.0886 18.304 87.9366C21.8694 94.162 28.0383 97.3879 34.9429 98.633C42.3568 99.9347 50.4499 100.218 57.977 99.2556C64.8816 98.35 71.6164 95.8033 76.427 90.5399C82.3694 84.0315 83.3881 76.0516 83.2184 67.5624C83.1618 65.7513 80.332 65.7513 80.3886 67.5624C80.615 76.3346 79.3699 84.5975 72.3521 90.5965C65.6173 96.3126 56.2226 97.1049 47.7333 96.8786C39.81 96.7088 30.1889 96.539 24.0766 90.7097C17.2853 84.2013 17.0589 74.0142 16.8891 65.242C16.7193 63.3744 13.8896 63.3744 13.9462 65.1854Z" fill="black"/>
<path d="M19.4964 48.9429C19.3832 46.5093 19.4398 44.0758 19.6096 41.5856C19.7228 39.7745 16.893 39.7745 16.7799 41.5856C16.6101 44.0192 16.6101 46.4527 16.6667 48.9429C16.7233 50.754 19.553 50.754 19.4964 48.9429Z" fill="black"/>
<path d="M82.9948 50.6975C83.1646 47.698 83.108 44.755 82.7684 41.7555C82.542 39.9445 79.7123 39.9445 79.9387 41.7555C80.2782 44.755 80.3348 47.698 80.165 50.6975C80.0519 52.5085 82.8816 52.5085 82.9948 50.6975Z" fill="black"/>
<path d="M71.7841 57.432C70.2561 57.0925 68.6714 56.7529 67.1433 56.4699C65.3889 56.0737 64.5966 58.8469 66.4076 59.1865C67.9357 59.526 69.5203 59.8656 71.0484 60.1486C72.8028 60.5447 73.5952 57.8282 71.7841 57.432Z" fill="black"/>
<path d="M33.1283 54.5455C31.5437 54.8285 29.9024 55.1115 28.3178 55.3945C26.5067 55.734 27.2991 58.4506 29.0535 58.111C30.6382 57.828 32.2794 57.5451 33.8641 57.2621C35.6751 56.9791 34.9394 54.2626 33.1283 54.5455Z" fill="black"/>
<path d="M19.04 40.2838C16.0404 37.737 14.2294 34.1149 12.6447 30.6627C12.2486 31.3984 11.8524 32.0775 11.3996 32.8133C13.72 32.7001 17.9081 33.4358 18.757 30.5495C19.9455 26.4746 17.9647 22.1734 19.4927 18.042C18.7004 18.2684 17.9081 18.4382 17.1157 18.6645C19.3229 20.419 23.6807 24.7768 26.1709 21.3811C27.4726 19.6266 28.1517 17.1931 29.0007 15.2122C29.5666 13.9106 30.076 12.5523 30.8117 11.3072C31.1513 10.7412 31.5474 9.89231 32.0002 9.55275C32.8491 8.87361 32.17 8.9868 32.9623 9.43955C34.4338 10.2319 34.9997 12.7221 36.9806 12.7787C38.8482 12.8353 40.3763 10.4017 41.5082 9.38296C42.5835 8.42085 43.6588 7.51533 44.7907 6.60981C45.017 6.44002 46.7715 4.79877 47.0545 4.91196C46.7149 4.62899 47.4506 5.81748 47.4506 5.81748C48.7523 8.9302 50.2238 11.9863 51.5821 15.099C51.9782 16.0046 53.1667 15.8914 53.7893 15.382C56.0531 13.5144 58.43 11.5902 61.1466 10.3451C61.3164 10.2885 64.8253 9.04339 64.5989 8.87361C64.7687 8.9868 63.6934 12.8918 63.5802 13.3446C63.3538 14.3067 64.2593 15.4952 65.3346 15.099C71.6167 12.6089 78.2949 12.4391 84.6901 14.5331C84.5769 13.6842 84.4637 12.8353 84.3505 11.9297C81.8604 13.288 79.257 14.5897 76.8234 16.0612C75.2387 17.0233 74.1068 17.8722 73.5975 19.6832C73.3145 20.5888 74.0502 21.4377 74.9558 21.4943C82.0867 21.947 89.5007 23.1921 94.8772 28.2857C95.33 27.4933 95.7827 26.701 96.2355 25.9087C91.4815 25.2861 86.7275 24.89 81.9169 24.89C80.3889 24.89 80.1059 26.7576 81.1812 27.5499C87.1803 31.9643 91.1985 38.3596 92.7832 45.6037C93.4623 45.0944 94.1415 44.5284 94.8772 44.0191C90.8024 41.7553 86.7841 39.7744 82.0867 39.2085C80.2757 38.9821 80.2757 41.8119 82.0867 42.0382C86.2182 42.491 89.8402 44.4718 93.4623 46.4526C94.5942 47.0752 95.7827 46.0565 95.5563 44.868C93.8585 36.8315 89.2743 29.9269 82.6527 25.1164C82.4263 26.0219 82.1999 26.8708 81.9169 27.7763C86.4445 27.7763 90.9721 28.0593 95.4431 28.6818C96.7448 28.8516 97.9333 27.3802 96.8014 26.3048C90.8589 20.7019 82.7659 19.1739 74.8992 18.6645C75.3519 19.2871 75.8047 19.853 76.2574 20.4756C76.7668 18.7777 79.5966 17.759 81.0114 16.9667C82.5961 16.1178 84.1241 15.2122 85.7088 14.3633C86.8407 13.7408 86.5011 12.1561 85.3692 11.7599C78.5213 9.49615 71.2205 9.66593 64.4857 12.3259C65.0517 12.8918 65.6742 13.5144 66.2401 14.0803C66.8627 11.477 69.0133 6.10045 64.3725 6.49662C59.6185 6.94938 55.4305 10.4017 51.8084 13.4012C52.5442 13.5144 53.2799 13.571 54.0156 13.6842C52.6574 10.5715 51.2991 7.51533 49.8842 4.40261C49.2617 3.04433 48.5259 1.51626 46.7715 1.91243C44.7907 2.36519 42.5835 4.68558 41.0554 5.98726C39.9235 6.94938 38.735 7.91149 37.7163 9.04339C36.6976 10.2319 36.7542 9.32637 35.5657 8.08128C34.4904 6.89278 33.3019 5.47791 31.5474 6.15705C29.9062 6.77959 28.6611 9.09999 27.9254 10.5715C26.8501 12.6655 26.1143 14.8727 25.1522 17.0233C24.8692 17.7024 24.5863 18.6079 24.1335 19.1739C23.9637 19.4003 23.4544 19.9096 23.9071 19.7964C23.1148 20.0228 19.6625 17.0799 19.0966 16.6271C18.2476 15.948 17.1157 16.1744 16.7196 17.2497C15.7009 19.9662 15.814 22.6828 15.9272 25.5691C15.9838 26.2483 16.4366 29.3044 16.0404 29.7005C15.4745 30.2665 12.192 29.8703 11.343 29.9269C10.2112 29.9835 9.7018 31.0588 10.098 32.0775C11.7958 35.8128 13.7766 39.6047 16.9459 42.3212C18.4174 43.4531 20.3982 41.4157 19.04 40.2838Z" fill="black"/>
<path d="M34.9412 39.2083C35.2241 37.7368 35.9599 36.7181 37.4314 36.2653C36.8654 35.9258 36.2429 35.5862 35.6769 35.3032C36.1863 37.284 37.7143 38.6423 39.7517 39.0951C42.2985 39.6044 45.7508 37.1143 47.7316 38.5857C49.4295 39.8308 49.8256 41.3589 52.3158 40.9061C53.7307 40.6231 55.0324 39.7742 56.3341 39.2083C57.2396 38.8687 58.1451 38.5291 59.0506 38.2462C59.3336 38.1896 63.0689 37.4538 62.1067 38.8121C61.4842 39.661 62.3331 41.0193 63.3518 40.9627C65.2195 40.8495 67.1437 40.7363 69.0113 40.6231C70.9922 40.51 73.6521 39.944 75.5197 40.9061C76.6516 41.4721 77.3874 42.3776 78.6325 42.7172C80.1039 43.1133 81.632 42.7738 83.1035 42.4908C84.9145 42.1512 84.1222 39.4347 82.3677 39.7742C81.0095 40.0572 79.8776 40.1704 78.6325 39.5478C78.0099 39.2649 77.5572 38.8121 76.9346 38.4725C75.9159 37.85 74.6708 37.6236 73.4823 37.567C70.1432 37.3972 66.6909 37.9066 63.3518 38.133C63.748 38.8687 64.1442 39.5478 64.5969 40.2836C65.7288 38.7555 65.4458 36.3785 63.6914 35.4164C61.371 34.0581 57.466 35.756 55.2588 36.6615C53.5609 37.3406 51.9197 38.8121 50.335 37.3972C49.5427 36.6615 49.0899 35.6994 48.0146 35.3032C45.4112 34.3411 39.4688 38.8687 38.4501 34.6241C38.2803 33.8884 37.4314 33.4356 36.6956 33.662C34.262 34.3977 32.6774 36.0956 32.2246 38.5857C31.885 40.227 34.6016 41.0193 34.9412 39.2083Z" fill="black"/>
</svg>
