<svg width="821" height="1016" viewBox="0 0 821 1016" fill="none" xmlns="http://www.w3.org/2000/svg">
<path d="M878.824 -103.308C729.801 -37.1218 596.598 -66.9996 439.905 -17.7953C260.376 38.911 131.516 196.738 75.5837 370.621C50.356 450.61 39.75 543.952 90.8348 612.827C125.944 660.218 183.163 687.234 241.701 701.963C299.556 716.497 359.721 720.437 418.324 732.372C520.151 753.223 615.931 797.664 717.131 823.261C738.463 828.694 760.85 833.024 782.687 831.566C804.524 830.109 825.128 822.668 845.05 815.031C950.742 773.67 1049.94 716.369 1136.76 645.654C1200.47 593.622 1258.17 534.234 1331.05 493.986C1372.45 470.718 1418.5 454.414 1456.25 425.873C1547.84 356.531 1570.04 222.9 1524.27 117.561C1478.51 12.2233 1375.08 -64.6736 1262.3 -101.343C1149.51 -138.011 1037.49 -141.392 922.76 -117.405C910.351 -115.346 889.065 -108.102 878.824 -103.308Z" fill="#FFC247" fill-opacity="0.2"/>
<path d="M646.931 165.053C552.117 204.091 466.54 184.606 366.657 213.2C252.219 246.164 171.169 341.358 136.968 447.034C121.556 495.652 115.632 552.561 148.985 595.1C171.908 624.37 208.8 641.401 246.422 650.941C283.606 660.355 322.17 663.321 359.809 671.154C425.209 684.835 486.956 712.867 551.999 729.44C565.71 732.956 580.086 735.809 594.056 735.122C608.026 734.435 621.151 730.082 633.837 725.602C701.135 701.324 764.127 667.25 819.061 624.869C859.377 593.683 895.777 557.949 942.071 534.045C968.369 520.219 997.705 510.69 1021.62 493.61C1079.62 452.111 1092.59 370.704 1062.31 305.945C1032.02 241.186 965.076 193.261 892.511 169.818C819.946 146.374 748.179 143.269 674.935 156.852C667.008 157.994 653.444 162.221 646.931 165.053Z" fill="#FFC247" fill-opacity="0.3"/>
<g clip-path="url(#clip0)">
<path d="M414.157 267.067C370.87 305.238 323.647 308.193 276.179 341.192C221.824 379.117 194.032 447.332 192.064 513.824C191.326 544.361 196.737 578.099 220.348 597.061C236.581 610.113 258.225 613.807 279.13 613.068C299.79 612.33 320.204 607.651 340.864 605.927C376.772 602.971 412.927 608.882 449.082 607.651C456.706 607.404 464.576 606.665 471.709 603.957C478.842 601.248 484.99 596.569 490.893 591.89C522.129 566.771 549.675 536.726 571.811 503.234C588.043 478.608 601.571 452.011 621.984 430.586C633.544 418.273 647.317 407.93 657.155 394.139C681.012 360.647 675.602 311.641 650.269 279.38C624.936 247.119 583.124 230.62 542.051 229.142C500.977 227.664 463.347 237.761 427.438 257.709C423.503 259.679 417.108 264.358 414.157 267.067Z" fill="#FFC247"/>
<path d="M495.16 367.401C417.932 356.073 338.244 374.543 264.213 395.229C232.24 404.095 189.445 411.975 174.688 446.452C161.898 476.496 184.772 503.832 210.104 517.622C245.029 536.339 287.825 538.801 326.439 541.51C373.907 544.465 421.621 545.943 469.09 545.943C506.966 545.943 546.81 547.174 583.456 535.846C613.462 526.734 644.944 506.048 652.077 473.541C661.177 432.415 620.209 406.828 587.498 395.5C544.498 377.5 524.998 374.5 491.717 367.155C483.847 367.155 483.847 379.468 491.717 379.468C523.498 388 528.998 388 563.998 400.5C588.375 410.5 634.614 423.303 640.517 455.318C646.912 490.287 608.543 515.406 580.013 524.025C548.04 533.63 514.099 533.383 480.895 533.63C442.281 533.876 403.421 533.137 364.807 531.413C327.177 529.689 288.808 528.704 252.162 519.839C224.861 513.19 176.655 495.212 183.542 458.273C190.182 423.549 237.405 415.669 265.443 407.788C337.752 387.595 416.456 368.386 491.717 379.468C499.833 380.453 503.031 368.632 495.16 367.401Z" fill="black"/>
<path d="M467.635 266.866C413.034 323.26 365.811 386.797 327.935 455.751C309.243 489.735 293.01 525.197 278.991 561.398C267.185 592.427 251.69 633.554 278.499 661.628C305.308 689.456 342.2 665.568 366.549 647.344C395.325 625.919 422.38 602.032 446.729 575.681C494.935 523.473 533.303 461.168 552.487 392.461C562.571 356.506 572.409 312.178 556.914 276.47C535.299 231.172 498.022 246.065 469 265.766C462.359 270.199 468.508 280.788 475.149 276.355C488.184 267.736 509 256 525.5 260C541 268.366 547.814 282.134 550.766 298.88C556.668 330.894 547.814 366.11 538.468 396.893C520.268 456.982 487.065 511.899 445.745 558.689C425.331 581.838 402.704 603.263 378.847 622.718C357.941 639.71 313.67 681.083 287.353 653.255C261.282 625.919 284.894 580.114 296.453 551.548C309.243 519.779 324.246 488.75 340.724 458.706C377.617 391.968 423.364 330.648 476.489 275.977C481.9 269.821 473.045 261.202 467.635 266.866Z" fill="black"/>
<path d="M421.621 323.32C401.453 294.753 373.66 268.403 341.195 254.612C310.943 241.806 281.183 257.074 268.64 286.626C254.129 320.857 267.656 362.722 277.74 396.214C288.562 432.661 303.073 468.369 320.535 502.354C337.998 536.338 358.411 568.599 381.777 598.89C403.42 626.718 428.753 653.56 463.432 663.904C493.438 672.769 530.085 667.844 543.366 636.076C558.615 599.136 550.744 559.241 537.463 523.286C525.166 490.041 512.376 456.549 496.389 424.781C480.403 393.505 459.251 365.185 436.624 338.588C431.459 332.431 422.85 341.297 428.015 347.207C462.448 387.841 488.027 430.937 507.949 480.436C519.263 508.757 532.544 537.816 537.955 568.107C541.398 586.823 540.414 606.278 534.758 624.501C528.609 644.202 515.573 654.053 495.16 655.53C460.727 657.747 430.967 636.322 408.831 611.942C387.679 588.547 369.479 562.196 353.001 535.107C318.814 478.713 292.743 416.161 278.97 351.394C275.034 332.924 272.329 312.73 278.724 294.507C284.381 277.761 299.383 261.753 317.83 261.507C337.506 261.261 358.411 277.022 372.923 288.843C387.434 300.663 399.977 314.208 410.799 329.476C415.472 335.879 426.048 329.722 421.621 323.32Z" fill="black"/>
<path d="M395.799 435.862C376.123 439.556 372.434 455.563 375.14 473.54C377.845 491.764 392.11 510.48 412.77 506.294C430.478 502.6 440.562 482.16 437.365 465.414C433.676 446.205 415.5 438 402.194 435.862C394.816 432.907 391.618 444.728 398.997 447.683C418.673 450 436.873 470.831 418.673 489.055C395.308 512.45 370.467 453.101 398.997 447.683C406.867 446.206 403.424 434.384 395.799 435.862Z" fill="black"/>
</g>
<defs>
<clipPath id="clip0">
<rect x="171" y="229" width="501" height="445" fill="white"/>
</clipPath>
</defs>
</svg>
