<svg width="119" height="119" viewBox="0 0 119 119" fill="none" xmlns="http://www.w3.org/2000/svg">
<path d="M112.964 59.8797C115.923 46.7132 112.471 39.9136 106.491 27.7979C100.449 15.744 89.1057 6.4718 76.0977 2.94836C73.8167 2.33022 71.4741 1.89751 69.1314 2.02114C66.3572 2.20659 63.7679 3.25744 61.2403 4.24647C55.1987 6.59543 49.2188 8.94439 43.1772 11.2934C30.909 16.1149 17.7778 21.6164 11.0581 32.9903C5.87955 41.6444 5.38636 52.4001 7.60572 62.1669C9.82509 71.9336 14.3871 80.9585 19.0724 89.798C21.7233 94.9286 24.5592 100.121 28.9363 103.83C35.7793 109.641 45.3349 110.939 54.3356 110.63C62.4117 110.382 70.4877 109.022 78.2554 106.612C85.2834 104.448 92.1265 101.296 97.4283 96.2886C106.922 87.2018 108.155 86.3364 110.498 73.4171C110.683 72.119 112.162 63.2795 112.964 59.8797Z" fill="#FFC247"/>
<path d="M4.8916 98.9105C16.235 80.6752 28.2566 62.8107 40.833 45.379C39.9699 45.379 39.0451 45.379 38.182 45.379C42.9907 54.8366 47.7993 64.3561 52.6079 73.8137C53.0394 74.6791 54.3957 74.8646 55.0122 74.1228C69.3148 57.8656 83.679 41.6083 97.9816 25.351C98.8446 24.362 98.2898 22.7548 96.8719 22.693C90.522 22.6312 84.1105 22.5694 77.7607 22.5075C78.0073 23.4966 78.2539 24.4238 78.5621 25.4128C90.6453 19.2932 103.037 13.9771 115.798 9.46464C115.12 8.97013 114.503 8.47561 113.825 7.98109C112.284 19.6641 110.743 31.347 109.14 43.0918C110.003 42.8446 110.866 42.6591 111.729 42.4119C107.845 38.1467 104.27 33.6342 101.002 28.9363C99.8927 27.3291 97.1801 28.8745 98.3515 30.4816C101.804 35.4268 105.503 40.1247 109.572 44.5754C110.311 45.379 111.976 45.0699 112.161 43.8954C113.825 31.9034 115.428 19.9731 116.969 7.98109C117.093 6.99206 115.86 6.18847 114.997 6.49754C101.989 11.0718 89.289 16.5115 77.0209 22.7548C75.603 23.4966 76.3428 25.5983 77.8223 25.6601C84.1722 25.7219 90.5837 25.7837 96.9335 25.8455C96.5636 24.9801 96.1937 24.1147 95.8238 23.1875C81.5213 39.4448 67.1571 55.702 52.8545 71.9593C53.6559 72.0829 54.4574 72.1447 55.2588 72.2684C50.4502 62.8107 45.6416 53.2913 40.833 43.8336C40.2781 42.721 38.7985 42.9682 38.182 43.8336C25.6057 61.2654 13.5841 79.1298 2.24069 97.3651C1.19266 99.0341 3.84357 100.58 4.8916 98.9105Z" fill="black"/>
<path d="M3.47033 99.9973C13.4575 105.622 23.5062 111.247 33.4934 116.811C34.2948 117.243 35.5894 116.934 35.7744 115.883C37.8705 102.593 39.9665 89.3034 42.0626 76.0132C41.0762 76.0132 40.0898 76.0132 39.1034 76.0132C42.3708 83.9873 45.6382 91.9614 48.9673 99.8737C49.3372 100.863 50.6934 101.543 51.5565 100.554C55.7487 95.7321 58.8928 90.1069 62.2218 84.6673C66.1057 78.424 71.0982 72.2114 74.982 65.9681C83.3791 54.3414 93.1747 42.8049 100.819 30.442C101.867 28.773 99.2163 27.1658 98.1683 28.8966C90.7088 40.8887 81.4413 51.7577 72.9476 63.3719C69.3103 69.3061 64.5028 75.086 60.8655 81.0202C57.2282 86.8926 53.8992 93.1359 49.3988 98.3901C50.2619 98.6374 51.125 98.8228 51.9881 99.0701C48.7207 91.096 45.4533 83.1219 42.1242 75.2096C41.631 73.9733 39.4117 73.4788 39.1651 75.2096C37.069 88.4998 34.9729 101.79 32.8769 115.08C33.6167 114.771 34.3565 114.462 35.1579 114.153C25.1708 108.528 15.122 102.903 5.13485 97.3393C3.28538 96.3502 1.74416 99.0083 3.47033 99.9973Z" fill="black"/>
</svg>
