<svg width="119" height="119" viewBox="0 0 119 119" fill="none" xmlns="http://www.w3.org/2000/svg">
<path d="M87.7216 15.4076C76.8258 6.01989 68.6539 5.69617 54.1704 5.11348C39.6868 4.5308 25.004 10.2282 14.9054 20.3928C13.1116 22.1409 11.5171 24.0832 10.3876 26.3492C9.12531 28.9389 8.72668 31.9171 8.32805 34.7658C7.46436 41.4991 6.53422 48.2323 5.60409 54.9656C3.74382 68.6912 2.08287 83.5821 9.25819 95.4948C14.7061 104.559 24.539 110.45 34.8369 113.364C45.1348 116.277 56.0306 116.666 66.7936 116.86C72.9723 116.989 79.3504 117.054 85.1305 114.918C94.1661 111.551 100.411 103.393 104.796 95.0416C108.782 87.4666 111.706 79.3738 113.5 71.0219C115.094 63.5117 115.758 55.6131 113.765 48.1676C110.178 34.8305 109.978 33.2767 99.0825 24.5364C98.0195 23.63 90.512 17.8031 87.7216 15.4076Z" fill="#FFC247"/>
<path d="M32.5805 61.8935C39.8223 61.9583 47.064 62.023 54.3058 62.023C58.0263 62.023 61.7469 62.0878 65.5338 62.0878C67.3277 62.0878 69.7859 62.541 70.5831 60.5339C71.4468 58.3974 70.3838 54.7071 70.2509 52.4411C70.0516 48.8155 69.9188 45.1898 69.8523 41.5642C69.7194 34.313 69.9188 27.0618 70.3174 19.8753C70.3838 18.9689 69.5201 18.2567 68.6564 18.2567C55.3024 18.192 41.9483 18.1272 28.5942 18.0625C27.7305 18.0625 26.8669 18.8394 26.9333 19.6811C27.9299 33.2124 28.1292 46.7437 27.3984 60.3397C27.2655 62.4115 30.5874 62.4115 30.7203 60.3397C31.4511 46.8084 31.3182 33.2124 30.2552 19.6811C29.7237 20.199 29.1257 20.7817 28.5942 21.2997C41.8819 21.3644 55.2359 21.4291 68.59 21.4939C68.0585 20.9759 67.4605 20.3932 66.929 19.8753C66.1982 32.2412 66.2647 44.6071 67.1948 56.9083C67.2612 57.75 67.3277 58.5917 67.3941 59.4333C67.1284 58.8506 66.7297 58.6564 66.1982 58.8506C64.8695 58.5269 62.9427 58.8506 61.614 58.8506C58.5578 58.8506 55.4352 58.7859 52.3791 58.7859C45.8017 58.7211 39.2243 58.7211 32.5805 58.6564C30.4545 58.6564 30.4545 61.8935 32.5805 61.8935Z" fill="black"/>
<path d="M30.1884 20.0047C34.2411 17.674 38.161 15.149 41.8815 12.3651C43.476 11.1997 44.9377 9.84007 46.5322 8.80419C49.0568 7.12087 51.515 7.3151 54.5048 7.18561C64.404 6.79715 74.2369 6.14972 84.0697 5.30806C83.6711 4.40166 83.2725 3.49526 82.8738 2.52411C77.8245 7.96253 72.7088 13.3362 67.6595 18.7746C66.1979 20.3284 68.5896 22.5945 69.9848 21.0406C75.0341 15.6022 80.1499 10.2285 85.1992 4.79012C86.0629 3.81897 85.5314 1.87668 84.0033 2.00617C73.3068 2.91257 62.5438 3.56 51.8472 3.94846C50.1863 4.0132 48.326 3.81897 46.7315 4.53114C45.0041 5.24332 43.6089 6.86189 42.2137 7.96253C37.8952 11.3939 33.2446 14.4368 28.461 17.2208C26.6672 18.3214 28.3281 21.1054 30.1884 20.0047Z" fill="black"/>
<path d="M82.4117 4.20764C81.9466 18.3216 82.2123 32.4356 83.1425 46.4848C83.2753 48.5566 86.5973 48.5566 86.4644 46.4848C85.4678 32.3709 85.2685 18.2569 85.7336 4.20764C85.8 2.13586 82.4781 2.13586 82.4117 4.20764Z" fill="black"/>
<path d="M83.1414 45.3198C78.0921 49.9165 72.312 54.3191 68.3257 59.9517C67.1298 61.6998 69.9867 63.3184 71.1826 61.5703C74.9695 56.2614 80.6832 51.9883 85.4668 47.5858C87.0613 46.1614 84.7359 43.8954 83.1414 45.3198Z" fill="black"/>
<path d="M48.0569 67.6554C60.0158 67.2022 71.9746 66.8137 83.9335 66.3605C83.402 65.8426 82.8041 65.2599 82.2725 64.742C83.2691 78.2085 84.3321 91.7398 85.3287 105.206C85.8602 104.688 86.4581 104.106 86.9897 103.588C73.0377 103.523 59.0192 103.394 45.0672 103.329C45.5987 103.847 46.1967 104.429 46.7282 104.947C47.1932 92.5815 47.5919 80.0861 48.0569 67.6554C48.1234 65.5836 44.8015 65.5836 44.735 67.6554C44.2699 80.0861 43.8713 92.5167 43.4062 104.947C43.4062 105.854 44.2035 106.566 45.0672 106.566C59.0192 106.631 73.0377 106.76 86.9897 106.825C87.8533 106.825 88.717 106.048 88.6506 105.206C87.654 91.7398 86.591 78.2085 85.5945 64.742C85.528 63.9003 84.8636 63.0586 83.9335 63.1234C71.9746 63.5766 60.0158 63.965 48.0569 64.4182C45.9309 64.483 45.9309 67.7201 48.0569 67.6554Z" fill="black"/>
<path d="M40.9468 65.6485C30.5824 65.519 20.1517 65.3895 9.72087 65.26C8.7243 65.26 8.1928 66.0369 8.05992 66.8786C6.4654 79.3093 5.73458 91.8047 5.80102 104.365C5.80102 105.336 6.53184 105.919 7.46198 105.983C17.9592 107.019 28.5229 107.472 39.0865 107.278C39.9502 107.278 40.8139 106.566 40.7475 105.66C40.216 93.0348 40.8139 80.4099 42.4749 67.9145C42.7406 65.8427 39.4187 65.8427 39.153 67.9145C37.492 80.4099 36.8941 93.0348 37.4256 105.66C37.9571 105.142 38.555 104.559 39.0865 104.041C28.5229 104.235 17.9592 103.847 7.46198 102.746C7.99348 103.264 8.59142 103.847 9.12293 104.365C8.99005 91.8047 9.72087 79.3093 11.3818 66.8786C10.8503 67.3965 10.2524 67.9792 9.72087 68.4972C20.1517 68.6266 30.516 68.7561 40.9468 68.8856C43.1392 68.8856 43.1392 65.6485 40.9468 65.6485Z" fill="black"/>
<path d="M11.251 66.3605C16.5661 61.6343 23.5421 59.2388 28.7907 54.5125C30.3852 53.0882 27.9935 50.8222 26.4654 52.2465C21.2168 56.9728 14.2408 59.3683 8.92571 64.0945C7.3312 65.4541 9.65653 67.7849 11.251 66.3605Z" fill="black"/>
<path d="M41.4866 68.1088C43.6126 66.3608 45.7386 64.6774 47.9311 62.9294C49.592 61.5698 47.2003 59.3038 45.6057 60.6634C43.4797 62.4114 41.3537 64.0948 39.1613 65.8428C37.5003 67.2024 39.8256 69.4684 41.4866 68.1088Z" fill="black"/>
<path d="M86.663 66.1667C92.1109 61.1167 96.2301 54.9014 101.744 49.8515C102.807 48.8803 102.01 47.0675 100.549 47.0675C94.5027 47.197 88.4568 47.456 82.4109 47.0675C80.2849 46.938 80.2849 50.1752 82.4109 50.3047C88.4568 50.6931 94.5027 50.4341 100.549 50.3047C100.15 49.3983 99.7513 48.4918 99.3526 47.5207C93.9047 52.5707 89.7856 58.786 84.2712 63.836C82.8096 65.325 85.1349 67.591 86.663 66.1667Z" fill="black"/>
<path d="M98.9512 49.1392C100.944 59.6924 102.007 70.4397 102.805 81.1871C103.004 83.7768 103.137 86.3665 103.336 88.9562C103.403 89.6684 103.668 91.546 103.27 92.1934C102.805 92.9056 100.28 93.7472 99.4828 94.2652C95.0314 96.9196 91.1116 100.286 87.6568 104.106C86.2616 105.66 88.5869 107.991 89.9821 106.372C94.1677 101.711 98.9512 98.2145 104.466 95.2363C106.259 94.2652 106.725 93.4882 106.791 91.4165C106.857 88.5678 106.459 85.6543 106.259 82.7409C105.462 71.2166 104.266 59.6276 102.14 48.2329C101.808 46.2258 98.5526 47.0675 98.9512 49.1392Z" fill="black"/>
<path d="M41.7493 106.696C42.6794 105.012 43.8753 103.458 45.3369 102.099C46.865 100.61 44.5397 98.3438 43.0116 99.8329C41.4171 101.387 40.0219 103.135 38.9589 105.077C37.8294 106.89 40.6863 108.508 41.7493 106.696Z" fill="black"/>
<path d="M47.7931 68.1088C48.9225 66.2313 50.052 64.289 51.1814 62.4114C52.2444 60.5986 49.3876 58.98 48.3246 60.7928C47.1951 62.6704 46.0657 64.6127 44.9362 66.4902C43.8732 68.303 46.7301 69.9216 47.7931 68.1088Z" fill="black"/>
</svg>
