<svg width="797" height="1084" viewBox="0 0 797 1084" fill="none" xmlns="http://www.w3.org/2000/svg">
<path d="M1.47039 453.71C-13.7273 341.096 96.9983 330 210.5 283C324.002 236 282.969 214.71 581.469 68.7104C820.269 -48.0896 1168.3 10.0437 1312.47 53.7104L1189.97 644.21C1112.97 814.877 954.769 1140.01 937.969 1075.21C916.969 994.21 651.002 880 384.002 865C117.002 850 25.5287 836 17.5007 768.5C6.75251 678.129 17.5014 572.5 1.47039 453.71Z" fill="#FFC247" fill-opacity="0.2"/>
<path d="M79.1382 380.216C150.715 312.558 179.52 338.312 247.169 298.153C558.616 91.0737 857.608 137.955 968.173 187.28L1014 463.153C987.086 578.682 895.986 807.907 746.896 800.573C560.535 791.407 281.707 831.976 187 821.5C92.2926 811.024 37.2396 738.153 43.7862 624.661C50.3329 511.169 7.56141 447.875 79.1382 380.216Z" fill="#FFC247" fill-opacity="0.3"/>
<g clip-path="url(#clip0)">
<path d="M531.812 632.118C557.4 562.683 608.875 468.139 569.894 409.242C530.913 350.346 413.169 213.954 344.402 277.5C275.635 341.046 164.776 360.947 112.5 436C77.7758 492.947 114.513 626.229 151.395 728.419C188.277 830.609 373.988 740.818 435.259 734.618C496.529 728.419 531.812 632.118 531.812 632.118Z" fill="#FFC247"/>
<path d="M331.501 329.2C355.501 336.2 379.501 343.2 403.801 348.9C406.901 349.6 408.301 344.8 405.101 344.1C380.801 338.4 356.801 331.4 332.801 324.4C329.701 323.5 328.401 328.3 331.501 329.2Z" fill="black"/>
<path d="M405.602 349.8C417.702 355 429.202 361.7 440.502 368.5C452.002 375.3 463.702 382.4 474.302 390.6C476.802 392.6 480.402 389 477.802 387.1C467.202 378.9 455.702 371.8 444.202 364.9C432.502 357.9 420.602 350.9 408.102 345.5C405.202 344.2 402.702 348.5 405.602 349.8Z" fill="black"/>
<path d="M327.3 326.2C319.9 353.9 303.4 378.3 297.4 406.5C296.7 409.6 301.6 411 302.2 407.8C308.2 379.6 324.7 355.2 332.1 327.5C333 324.4 328.2 323.1 327.3 326.2Z" fill="black"/>
<path d="M404.101 346.8C399.801 376 384.801 401.8 375.601 429.5C374.601 432.6 379.401 433.9 380.401 430.8C389.601 403.1 404.601 377.3 408.901 348.1C409.401 344.9 404.601 343.6 404.101 346.8Z" fill="black"/>
<path d="M297.001 408.8C295.501 438.5 287.801 467.5 287.001 497.3C286.901 500.5 291.901 500.5 292.001 497.3C292.801 467.6 300.401 438.5 302.001 408.8C302.101 405.5 297.101 405.6 297.001 408.8Z" fill="black"/>
<path d="M374.401 431.6C375.901 462.5 372.801 493.4 365.301 523.4C364.501 526.5 369.301 527.9 370.101 524.7C377.701 494.3 380.901 462.8 379.401 431.6C379.301 428.4 374.301 428.4 374.401 431.6Z" fill="black"/>
<path d="M286.501 498.9C277.301 522.5 268.001 546 258.901 569.7C250.601 591.5 242.501 613.5 232.801 634.7C231.501 637.6 235.801 640.2 237.101 637.2C246.701 616.1 254.801 594.3 263.101 572.6C272.301 548.4 281.901 524.3 291.301 500.2C292.501 497.3 287.701 496 286.501 498.9Z" fill="black"/>
<path d="M365.599 524.3C360.399 536.2 355.399 548.2 350.499 560.3C345.699 572.2 340.799 584.2 337.599 596.7C336.099 602.5 334.999 608.4 332.999 614C330.799 620.3 327.599 626.1 324.899 632.2C319.999 643.3 315.799 654.6 310.499 665.6C309.099 668.5 313.399 671 314.799 668.1C319.899 657.4 323.999 646.3 328.799 635.5C331.199 630.1 333.899 624.9 336.199 619.4C338.599 613.6 340.099 607.6 341.599 601.5C347.799 575.8 359.299 550.9 369.899 526.8C371.199 523.9 366.899 521.3 365.599 524.3Z" fill="black"/>
<path d="M232.901 634.7C229.001 642.5 224.501 650 219.501 657.2C217.001 660.8 214.301 664.4 211.401 667.8C209.901 669.6 207.301 671.8 207.301 674.3C207.201 680.4 219.101 681.7 223.001 683.1C231.601 686.2 240.001 690 248.301 693.7C255.901 697.1 263.601 700.5 271.501 703.4C274.601 704.5 278.501 706.6 281.901 706.7C284.601 706.8 286.201 705.1 288.001 703.3C298.301 692.7 306.301 680 314.901 668C316.801 665.4 312.401 662.9 310.601 665.5C303.201 675.8 296.201 686.5 287.901 696.1C286.301 698 284.201 701.4 281.501 701.6C278.501 701.8 274.001 699.1 271.201 698.1C264.001 695.4 257.101 692.3 250.101 689.1C243.801 686.3 237.601 683.5 231.201 680.9C227.801 679.6 224.401 678.3 221.001 677.1C219.401 676.6 217.201 676.3 215.801 675.5C215.201 675.3 214.601 675.2 214.101 675C213.401 673.5 213.701 672.2 215.001 671.3C216.401 668.7 219.001 666.3 220.801 663.9C222.701 661.3 224.601 658.7 226.301 656C230.301 649.9 233.901 643.6 237.201 637.1C238.701 634.4 234.401 631.9 232.901 634.7Z" fill="black"/>
<path d="M207.401 673.7C205.401 678.8 203.501 683.9 202.201 689.1C201.301 692.8 200.801 695.8 203.901 698.5C208.101 702 214.001 703.9 219.201 705.6C225.301 707.6 231.501 709.4 237.501 711.6C243.701 713.9 249.901 716.3 256.101 718.7C262.101 721 268.401 723.9 274.701 725.2C283.001 726.9 283.501 712.6 284.101 707.5C284.501 704.3 279.401 704.3 279.101 707.5C278.801 710.5 278.901 717.9 276.201 719.9C275.001 720.8 273.401 719.6 271.601 719C269.801 718.4 268.001 717.8 266.301 717.2C257.101 713.9 248.001 710.2 238.801 706.8C230.001 703.6 220.601 701.6 212.201 697.6C209.601 696.4 206.801 695.4 206.701 691.8C206.601 690.1 207.801 687.8 208.301 686.2C209.501 682.4 210.901 678.7 212.301 675.1C213.401 672 208.601 670.7 207.401 673.7Z" fill="black"/>
<path d="M277.301 725.7C288.101 727.6 299.001 728.3 310.001 727.2C321.001 726.1 331.901 723.9 342.901 722.1C346.101 721.6 344.701 716.8 341.601 717.3C331.101 719 320.601 721.1 310.101 722.2C299.601 723.2 289.201 722.7 278.801 720.9C275.501 720.3 274.101 725.1 277.301 725.7Z" fill="black"/>
<path d="M405.099 591.3C422.899 541 443.599 491.8 461.199 441.5C467.299 424.2 472.999 406.9 478.499 389.4C479.499 386.3 474.599 385 473.699 388.1C457.199 440.2 437.299 490.8 417.899 541.8C411.799 557.8 405.899 573.8 400.199 589.9C399.199 593 403.999 594.3 405.099 591.3Z" fill="black"/>
<path d="M236.601 657.2C247.901 661.5 259.301 665.2 270.501 669.8C273.001 670.9 275.601 671.9 278.101 673C280.501 674 284.201 674.9 286.301 676.5C288.901 678.5 286.501 681 285.101 683.5C282.701 687.9 280.901 690.9 274.701 688.8C269.201 687 263.801 683.6 258.501 681.1C252.801 678.4 247.101 675.8 241.301 673.3C238.801 672.2 236.301 671.2 233.701 670.2C231.201 669.2 226.301 668.8 229.001 665.8C230.401 664.2 232.501 663.1 234.001 661.6C235.801 659.8 237.201 657.7 238.501 655.5C240.101 652.7 235.801 650.2 234.201 653C232.201 656.5 229.701 658.9 226.601 661.4C224.801 662.8 222.401 664.6 222.201 667C221.701 673 232.101 674.8 236.001 676.4C244.601 679.9 252.901 683.9 261.201 687.8C265.201 689.7 269.101 691.7 273.101 693.5C275.701 694.7 278.301 695.7 281.201 694.7C286.701 692.9 290.901 684.8 292.701 679.7C294.601 674.1 289.201 672.2 285.001 670.5C277.101 667.2 269.301 663.8 261.301 660.6C253.601 657.5 245.601 655.2 237.901 652.3C234.901 651.2 233.601 656 236.601 657.2Z" fill="black"/>
<path d="M243.599 657C240.899 660.9 238.399 665.8 234.399 668.6C231.799 670.4 234.299 674.8 236.899 672.9C241.699 669.6 244.699 664.2 247.899 659.5C249.799 656.9 245.499 654.4 243.599 657Z" fill="black"/>
<path d="M255.8 659.9C253.6 662.2 251.4 664.4 249.6 667C248 669.3 246.8 672 244.5 673.7C241.9 675.5 244.4 679.9 247 678C249.4 676.3 250.9 674.2 252.5 671.7C254.4 668.6 256.8 666 259.3 663.4C261.6 661.2 258 657.6 255.8 659.9Z" fill="black"/>
<path d="M265.7 665.5C264.1 667.8 263.2 670.3 261.7 672.6C260.1 675 258.2 677.1 256.3 679.2C254.2 681.6 257.7 685.1 259.8 682.7C261.8 680.5 263.7 678.3 265.5 675.9C267.3 673.4 268.4 670.5 270.1 668C271.8 665.4 267.5 662.9 265.7 665.5Z" fill="black"/>
<path d="M277.2 670.9C274.4 676.2 272.1 681.9 267.2 685.6C264.7 687.5 267.2 691.9 269.7 689.9C275.4 685.5 278.2 679.6 281.5 673.4C283.1 670.6 278.8 668.1 277.2 670.9Z" fill="black"/>
<path d="M284.401 582C280.701 579.7 273.701 576.7 269.301 578.4C265.601 579.8 262.601 585.2 265.201 588.8C266.601 590.8 269.201 591.7 271.401 592.6C273.501 593.5 276.601 595.4 279.001 594.8C281.101 594.3 283.801 591.6 285.201 590.1C286.801 588.2 287.401 586.1 286.601 583.7C285.601 580.7 280.801 582 281.801 585C282.401 586.8 278.401 589.5 277.101 590.2C277.701 590.1 278.401 590 279.001 589.9C276.901 589.6 274.801 588.6 272.801 587.7C271.101 586.9 268.101 585.9 270.201 583.6C272.401 581.3 279.801 584.9 281.901 586.2C284.601 588 287.101 583.7 284.401 582Z" fill="black"/>
<path d="M293.201 590.4C296.001 591.6 298.801 592.9 301.401 594.5C302.001 594.9 302.601 595.3 303.301 595.6C304.401 596.2 304.501 596.4 303.701 596C303.501 597.2 302.001 598.4 300.801 598.7C299.201 599.1 298.101 598.2 296.901 597.3C296.501 597 293.001 595 293.001 594.6C293.001 593.9 295.001 592.5 295.401 591.9C296.101 590.9 296.501 590 296.801 588.9C297.701 585.8 292.901 584.5 292.001 587.6C291.301 590.1 288.401 591.1 287.901 593.7C287.501 595.7 288.501 597.2 289.901 598.5C293.501 601.5 298.301 605.3 303.201 603.2C306.501 601.8 310.701 596.8 308.201 593.2C306.901 591.3 304.101 590.2 302.101 589.1C299.701 587.8 297.201 586.6 294.601 585.6C291.501 584.4 290.201 589.2 293.201 590.4Z" fill="black"/>
<path d="M313.099 599.6C316.599 600.2 324.799 601 326.499 604.7C326.399 604.1 326.299 603.4 326.199 602.8C325.999 603.7 324.799 607.4 323.899 607.8C322.999 608.3 320.299 606.4 319.299 605.9C317.699 605 316.099 604.1 314.499 603.2C313.699 602.7 312.899 602.5 312.899 601.7C312.799 600.9 314.199 599.7 314.699 599.2C316.899 596.9 313.399 593.3 311.199 595.7C307.999 599.1 305.899 603.2 310.299 606.5C312.899 608.4 315.899 609.9 318.699 611.3C320.499 612.2 323.399 614.3 325.599 613.5C327.999 612.7 328.899 609.1 329.899 607C330.799 605.1 331.599 603.3 330.299 601.3C327.399 596.8 319.099 595.7 314.399 594.9C311.199 594.2 309.899 599.1 313.099 599.6Z" fill="black"/>
<path d="M323.101 617.7C320.001 616.5 316.901 615.3 313.701 614.1C311.801 613.4 309.201 611.7 307.001 612.4C305.101 613 304.401 615 303.801 616.7C303.101 618.7 301.801 621.5 302.701 623.6C303.601 625.8 306.401 626.8 308.401 627.7C310.601 628.8 313.201 630.3 315.601 630.5C320.201 631 323.801 625.3 325.701 621.9C327.201 619.1 322.901 616.5 321.401 619.4C320.501 621 319.601 622.5 318.301 623.8C317.201 625 316.801 625.5 315.101 625.3C313.301 625 307.801 622.5 307.601 621.1C307.601 620.9 308.601 617.3 308.401 617.4C308.801 617.1 312.101 618.8 312.401 618.9C315.501 620.1 318.601 621.3 321.801 622.5C324.801 623.7 326.101 618.9 323.101 617.7Z" fill="black"/>
<path d="M315.3 634.8C310.7 634.4 305.8 629.1 301 631.5C298.8 632.6 298.1 635.2 297.2 637.3C296.5 639 295.5 640.8 296.3 642.7C297.3 644.8 300.1 645.5 302 646.4C304.5 647.5 307.5 649.5 310.3 649.7C315.5 649.9 317.5 643.2 318.7 639.3C319.7 636.2 314.8 634.9 313.9 638C313.4 639.6 312.9 642.1 311.7 643.4C310 645.2 309 644.2 306.9 643.3C305.7 642.8 304.6 642.2 303.4 641.7C302.6 641.3 301.9 641 301.1 640.6C301.2 641.3 301.4 641.1 301.6 639.9C302.4 638.4 302.3 636.4 304.2 636.2C305.2 636.1 306.6 637.2 307.5 637.6C310.1 638.8 312.5 639.8 315.3 640C318.5 640.1 318.4 635.1 315.3 634.8Z" fill="black"/>
<path d="M311.799 654.4C308.299 652.9 304.799 651.4 301.299 649.9C299.499 649.1 297.199 647.7 295.099 648.2C292.999 648.7 292.099 650.7 291.299 652.5C290.399 654.4 288.599 657.1 288.999 659.3C289.299 661.3 290.899 662.1 292.499 662.9C295.599 664.3 299.099 665.9 302.299 666.7C306.899 667.9 310.899 662.4 312.699 658.8C314.099 655.9 309.799 653.4 308.399 656.3C307.699 657.8 306.799 659.2 305.599 660.4C305.299 660.7 305.099 660.9 304.799 661.2C303.999 662.2 303.199 662.3 302.199 661.5C300.899 661.2 299.299 660.4 297.999 659.9C297.099 659.5 296.099 659.2 295.199 658.8C293.499 658.6 293.099 658.3 293.999 658C293.999 658 295.899 654.1 296.099 654C297.299 653.4 298.999 654.6 299.999 655C303.099 656.3 306.099 657.6 309.199 658.9C312.199 659.9 314.699 655.6 311.799 654.4Z" fill="black"/>
<path d="M288.501 646.6C285.201 644.9 281.901 643.1 278.601 641.4C276.901 640.5 275.301 639.5 273.301 640.3C271.401 641.1 270.401 643.3 269.401 645C268.201 647 266.501 649.2 267.401 651.6C268.201 653.8 271.001 654.9 272.901 655.8C275.201 657 277.801 658.3 280.301 658.9C285.301 660.2 287.601 654.7 289.501 651.1C291.001 648.3 286.701 645.7 285.201 648.6C284.501 649.9 283.701 651.3 282.801 652.6C281.701 654.2 282.001 653.9 280.401 653.8C279.401 653.7 272.201 650.5 272.201 649.8C272.201 649.1 274.001 647.2 274.401 646.4C275.201 644.5 274.901 645.2 276.601 646.1C279.701 647.7 282.801 649.4 285.901 651C288.801 652.4 291.301 648.1 288.501 646.6Z" fill="black"/>
<path d="M266.999 637.3C263.699 635.6 260.499 633.8 257.199 632.1C255.099 631 252.599 629.1 249.999 629.7C245.999 630.6 241.899 637.3 243.099 641.2C243.799 643.7 246.599 644.3 248.799 645.3C251.999 646.7 255.199 648.5 258.499 649.6C263.499 651.4 265.999 644.4 268.299 641.1C270.099 638.4 265.799 635.9 263.999 638.6C262.999 640.1 261.999 642 260.799 643.3C259.299 644.9 259.399 644.5 257.199 643.5C253.899 642 249.899 640.8 246.999 638.6C247.399 639.3 247.799 640 248.199 640.8C247.999 639.1 248.799 636.1 250.499 635.1C251.999 634.2 253.499 635.6 254.799 636.3C258.099 638 261.299 639.8 264.599 641.5C267.299 643.1 269.799 638.8 266.999 637.3Z" fill="black"/>
<path d="M262.599 598.9C265.799 600.1 268.999 601.2 272.299 602.4C272.899 602.6 277.199 604.4 276.699 603.5C276.899 603.9 274.699 607.6 274.299 608.1C273.099 609.9 272.399 609.5 270.299 609C268.699 608.6 267.099 608.1 265.599 607.5C264.699 607.2 263.799 606.8 262.999 606.4C261.699 606.2 261.299 605.5 261.899 604.4C261.899 602.9 264.099 600.2 264.699 598.9C266.199 596 261.899 593.5 260.399 596.4C257.999 601 253.399 606.5 259.199 610.2C262.099 612 265.699 613.2 268.999 613.9C270.999 614.4 274.199 615.4 276.099 614.3C278.199 613.1 279.199 609.5 280.299 607.4C281.299 605.5 282.999 603.3 281.499 601.2C280.199 599.3 276.999 598.9 274.999 598.2C271.299 596.9 267.599 595.5 263.899 594.2C260.899 592.9 259.599 597.8 262.599 598.9Z" fill="black"/>
<path d="M254.4 616.8C257.4 618.7 260.6 620.4 263.9 621.8C264.9 622.2 266 622.7 267 623C267.8 623.3 268.7 623.6 269.5 623.9C269.2 623.4 269 623.8 268.8 625C268.4 625.8 268 626.6 267.6 627.4C267.6 628.5 267.1 628.6 266 627.6C264.6 627.4 263 626.4 261.7 625.9C260.1 625.3 257.9 624.8 256.5 623.7C253.9 621.6 255.3 618.9 256.8 616.6C258.5 613.9 254.2 611.4 252.5 614.1C249.7 618.5 248.2 623.9 253.1 627.5C255.6 629.3 258.9 630.3 261.8 631.4C263.9 632.2 266.9 634.2 269.2 633.1C271.5 632.1 272.7 628.4 273.7 626.3C274.5 624.5 275.5 622.5 274.1 620.7C272.7 618.8 269 618.5 267 617.7C263.4 616.3 260.1 614.5 256.9 612.5C254.2 610.7 251.7 615.1 254.4 616.8Z" fill="black"/>
<path d="M279.099 626.3C283.499 627.4 290.299 628.7 293.899 631.7C293.699 630.9 293.499 630.1 293.299 629.3C292.899 631.7 290.999 635.4 289.499 637.4C290.199 637 290.899 636.6 291.699 636.2C289.099 636.1 285.999 634.3 283.799 633.2C281.699 632.2 278.899 631 277.299 629.3C277.499 630.1 277.699 630.9 277.899 631.7C278.399 629.9 279.899 628 280.899 626.4C282.499 623.6 278.199 621.1 276.599 623.9C275.499 625.8 272.899 628.7 272.999 631.1C273.199 633.2 275.399 634.2 276.999 635.2C279.499 636.8 282.199 638.1 284.999 639.2C287.099 640.1 290.299 642 292.599 641C294.799 640.1 295.699 636.3 296.599 634.4C297.499 632.6 298.899 630.5 297.599 628.6C296.299 626.6 292.999 625.9 290.899 625.1C287.499 623.7 283.999 622.6 280.399 621.7C277.299 620.7 275.999 625.5 279.099 626.3Z" fill="black"/>
<path d="M286.298 608C289.398 608.4 292.398 609.1 295.398 610.3C296.198 610.6 296.898 610.9 297.698 611.3C298.998 611.9 299.198 612 298.198 611.7C298.198 613.1 296.898 615.6 296.098 616.6C296.698 616.4 297.298 616.1 297.898 615.9C295.598 615.7 292.898 614.3 290.898 613.4C289.098 612.6 286.098 611.8 284.698 610.5C284.898 611.3 285.098 612.1 285.298 612.9C285.498 611.9 286.798 610.9 287.398 610C288.098 609 288.498 608 288.798 606.8C289.498 603.7 284.698 602.3 283.998 605.5C283.098 609.4 277.698 612.2 282.998 615.2C285.698 616.7 288.698 618 291.598 619.1C293.598 619.9 296.698 621.6 298.898 620.7C301.798 619.5 304.698 611.8 302.998 609.1C301.898 607.3 299.298 606.6 297.398 605.8C294.298 604.6 291.098 603.8 287.698 603.3C284.498 602.7 283.098 607.5 286.298 608Z" fill="black"/>
<path d="M346.698 376C343.898 374.6 340.798 377 341.098 380C341.298 382.9 343.998 384.9 346.798 384.2C347.998 383.9 349.198 383.1 350.098 382.2C351.398 380.8 350.998 378.9 349.798 377.6C348.898 376.6 347.698 375.8 346.298 375.8C344.698 375.8 343.598 376.4 342.698 377.7C341.898 378.8 342.498 380.5 343.598 381.1C344.898 381.9 346.198 381.3 346.998 380.2C346.898 380.4 346.598 380.7 346.398 380.8C346.298 380.8 345.998 380.8 345.898 380.8C345.898 380.8 345.598 380.7 345.898 380.9C346.198 381.1 345.798 381.1 345.798 380.4C345.898 380 345.998 379.6 346.098 379.1C346.398 378.6 346.098 379.1 346.098 379.1C345.898 379.2 345.798 379.3 345.598 379.4C345.698 379.4 345.698 379.4 345.498 379.4C345.298 379.4 345.298 379.5 345.498 379.4C345.498 379.4 345.898 379.5 345.898 379.6C346.198 379.8 345.498 379.3 345.898 379.7C345.898 379.8 345.898 379.8 345.998 379.9C345.898 379.6 345.898 379.6 345.898 379.8C345.898 380 345.898 380 345.898 379.7C345.898 379.8 345.898 379.9 345.898 379.9C345.398 380.5 345.298 381.1 343.998 380.4C345.198 381 346.698 380.7 347.398 379.5C348.298 378.3 347.898 376.6 346.698 376Z" fill="black"/>
<path d="M356.3 379.3C353.6 379.7 351.9 382.5 352.4 385.1C352.9 387.9 356 389.8 358.7 388.6C361 387.6 362.4 385 361.9 382.5C361.4 379.8 358.2 377.9 355.7 379.6C354.6 380.3 354.1 381.8 354.8 383C355.5 384.1 357.1 384.6 358.2 383.9C357.9 384.1 357.4 383.9 357.1 383.7C357.1 383.7 356.8 383.4 357 383.6C357 383.7 357 383.7 357 383.6C357 383.5 357 383.5 357 383.6C357 383.8 357 383.8 357 383.5C357 383.6 357 383.7 356.9 383.7C357.1 383.5 356.9 383.6 356.8 383.8C357 383.6 356.8 383.8 356.7 383.9C357 383.7 356.6 384 356.6 384C356.6 384 357.1 384 356.9 384C357.1 384 357.2 384.2 357.1 384.1C356.9 383.9 357.2 384.2 357.1 384.2C357.1 384.1 357 383.8 357 384.1C357.1 384.4 356.8 384.1 357 384L356.9 384.2C357.1 383.9 357.1 384 356.9 384.1C356.7 384.2 357.3 384 357.3 384C358.6 383.8 359.4 382.1 359 380.9C359 379.6 357.6 379.1 356.3 379.3Z" fill="black"/>
<path d="M368.398 383.8C366.598 384.7 365.298 387.1 365.198 389.1C365.098 391.6 367.398 393.5 369.798 393.4C372.098 393.3 374.098 391.6 374.398 389.3C374.698 387.1 373.198 384.8 370.998 384.3C369.698 384 368.298 384.7 367.898 386C367.598 387.2 368.298 388.8 369.598 389.1C370.098 389.2 369.598 389 369.398 388.8C369.498 389.1 369.598 389.1 369.398 388.8C369.398 388.7 369.398 388.5 369.398 388.4C369.498 388.2 369.498 388.2 369.398 388.5C369.398 388.4 369.498 388.3 369.598 388.3C369.798 388.2 369.798 388.3 369.498 388.3C369.698 388.3 369.698 388.3 369.498 388.3C369.298 388.3 369.298 388.3 369.498 388.3C369.598 388.3 369.698 388.4 369.698 388.4C369.898 388.7 370.098 389 369.998 389.4C370.098 389.2 370.098 389 370.198 388.9C370.298 388.6 370.298 388.6 370.498 388.3C370.798 387.8 370.198 388.4 370.698 388.1C371.898 387.5 372.298 385.8 371.598 384.7C371.098 383.5 369.598 383.2 368.398 383.8Z" fill="black"/>
<path d="M308.101 419.1C318.001 423.6 328.201 427.6 338.601 430.8C344.001 432.5 349.401 434 354.801 435.4C356.501 435.8 361.601 436.1 362.801 437.3C363.901 438.5 362.701 444.9 362.601 446.6C361.701 458.7 359.201 470.7 357.001 482.6C354.801 495.1 352.501 507.5 350.301 520C349.701 523.1 354.601 524.5 355.101 521.3C357.501 507.9 359.901 494.4 362.301 481C364.601 468.3 367.201 455.6 367.701 442.8C367.901 439.2 368.801 434.5 364.901 432.7C362.301 431.5 358.801 431.2 356.001 430.5C353.101 429.8 350.201 429 347.401 428.2C334.801 424.6 322.401 420.1 310.501 414.7C307.701 413.4 305.201 417.7 308.101 419.1Z" fill="black"/>
<path d="M306.198 418.3C303.198 430.1 302.598 442.3 301.998 454.4C301.298 467.6 299.698 480.5 296.198 493.2C295.198 496.9 293.498 500.6 297.298 503C302.098 506.1 308.198 508 313.498 510.1C325.798 515.2 338.398 519.5 351.198 523.1C354.298 524 355.598 519.2 352.498 518.3C341.498 515.2 330.698 511.6 320.098 507.4C314.398 505.2 308.798 502.8 303.198 500.2C302.498 499.9 300.098 499.1 299.798 498.3C299.598 497.7 300.798 494.8 300.898 494.4C301.698 491.7 302.298 489 302.998 486.2C307.898 464.2 305.398 441.3 310.998 419.4C311.898 416.6 306.998 415.2 306.198 418.3Z" fill="black"/>
<path d="M315.398 437.2C314.998 445.6 314.598 454 313.998 462.4C313.698 466.6 313.698 470.9 312.398 474.9C311.398 478.2 310.098 481.4 309.498 484.9C308.498 490.7 308.698 493.9 314.598 495.7C323.098 498.3 331.398 501.3 339.498 505.1C342.398 506.4 344.898 502.1 341.998 500.8C335.598 497.8 328.998 495.1 322.198 492.9C319.598 492 314.698 491.6 313.998 489C313.198 486.3 315.598 481 316.498 478.5C318.498 472.7 318.698 466.7 319.098 460.6C319.598 452.8 320.098 445.1 320.398 437.3C320.598 434 315.598 434 315.398 437.2Z" fill="black"/>
<path d="M348.202 347.1C355.702 351.3 363.902 353.1 372.202 355.1C376.502 356.1 380.802 357.1 384.902 358.8C388.502 360.3 387.402 362.2 386.602 365.3C386.002 367.7 385.402 370.2 384.702 372.6C383.902 375.7 388.702 377 389.502 373.9C390.602 369.8 393.802 363 392.402 358.7C391.202 355 386.302 353.8 383.102 352.8C372.302 349.2 360.702 348.4 350.702 342.7C347.902 341.2 345.402 345.5 348.202 347.1Z" fill="black"/>
<path d="M288.401 518.2C287.201 524.2 285.601 530 283.501 535.8C282.201 539.3 278.901 544.1 281.701 547.7C282.901 549.2 285.001 549.9 286.601 550.6C289.501 552 292.301 553.3 295.201 554.6C298.301 556 302.501 559.4 305.601 556.9C308.801 554.3 310.801 548.7 312.301 545C314.301 540.1 315.601 534.8 316.001 529.5C316.401 525 314.001 524.4 310.001 522.9C304.201 520.6 298.301 518.3 292.401 516.2C289.401 515.1 288.101 519.9 291.101 521C294.601 522.3 298.201 523.6 301.701 524.9C305.001 526.2 309.401 527.2 312.301 529.4C311.901 528.7 311.501 528 311.101 527.2C311.501 531.4 310.001 536.4 308.601 540.4C307.201 544.6 305.101 550.6 301.601 553.7C302.401 553.5 303.201 553.3 304.001 553.1C300.401 552.3 296.601 549.9 293.301 548.3C291.601 547.5 289.701 546.9 288.101 545.9C285.301 544.1 285.201 544.3 286.601 540.8C289.401 533.9 291.501 526.9 293.001 519.5C293.801 516.4 289.001 515.1 288.401 518.2Z" fill="black"/>
<path d="M322.1 532.8C325.7 534.9 329.7 535.4 333.7 536.5C337.9 537.7 341.8 539.6 345.6 541.6C346.6 542.1 347.6 542.7 348.6 543.2C348.2 541.6 347.7 542.1 347.2 545C346.3 547.1 345.1 549.1 344.1 551.1C342.4 554.6 341.1 558.2 339.8 561.9C339.4 563 339 564.1 338.4 565.2C337.8 566.7 336.9 567 335.6 566.1C333.2 566 330.3 564.2 328.2 563.2C324.7 561.6 320.7 560.2 317.4 558.2C315.1 556.8 315.7 556 316.4 553.5C317.1 551.2 318 548.9 318.8 546.6C320.8 541.6 323.2 536.8 325.9 532.1C327.5 529.3 323.2 526.8 321.6 529.6C318.3 535.5 315.4 541.5 313.1 547.9C311.9 551.2 308.7 557.6 311.6 560.8C313.1 562.4 316 562.9 317.9 563.8C321 565.2 324.1 566.8 327.3 568.2C330.6 569.7 336.7 573.2 340.3 571C344.1 568.6 345.1 561.6 346.6 557.7C347.9 554.5 349.7 551.4 351.2 548.3C352 546.6 353.6 544 353.4 542C353 538.2 346.4 536.4 343.6 535C340.8 533.7 338 532.6 335.1 531.7C331.5 530.7 328 530.4 324.7 528.5C321.8 526.9 319.3 531.2 322.1 532.8Z" fill="black"/>
<path d="M293.299 529C292.599 533.7 292.699 539.6 295.699 543.5C298.599 547.4 302.799 545.7 304.099 541.5C304.399 540.5 303.899 539.2 302.999 538.7C300.599 537.4 299.299 535.5 298.899 532.9C298.399 529.7 293.599 531.1 294.099 534.2C294.699 538 297.099 541.2 300.499 543C300.099 542.1 299.699 541.1 299.399 540.2C299.699 540.5 299.699 540.4 299.399 540C299.199 539.6 298.999 539.2 298.899 538.8C298.599 538 298.399 537.2 298.299 536.4C297.899 534.4 297.899 532.4 298.199 530.4C298.599 527.2 293.799 525.8 293.299 529Z" fill="black"/>
<path d="M336.799 542.6C336.599 542.8 336.499 543 336.299 543.1C335.499 543.9 335.399 545.1 335.899 546.1C336.399 547 336.899 547.5 337.999 547.8C338.699 548 340.099 547.5 340.099 547.5C339.599 547.1 339.099 546.7 338.599 546.4C338.699 546.6 338.799 546.7 338.799 546.9C338.799 546.1 338.799 545.2 338.799 544.4C337.899 546.3 335.799 547.9 333.899 548.8C332.899 549.3 331.999 549.6 330.899 549.9C330.099 550.1 326.999 549.8 326.699 551C326.299 551.5 325.899 552 325.599 552.5C325.899 552.5 326.099 552.5 326.399 552.5C325.899 551.3 325.399 550.1 324.899 548.8L324.999 548.7C322.299 550.5 324.799 554.8 327.499 553C328.199 552.5 328.699 552.1 329.199 551.3C329.999 550 329.299 547.9 327.699 547.6C324.599 547 319.899 548.8 322.299 552.7C324.399 556.1 330.099 555.5 333.299 554.5C336.999 553.4 341.299 550.8 343.099 547.2C343.699 546 343.699 544.4 342.599 543.4C342.099 542.9 341.499 542.7 340.899 542.6C340.499 542.5 338.899 542.9 339.099 543C339.599 543.4 340.099 543.8 340.599 544.1C340.499 543.9 340.399 543.8 340.299 543.6C340.199 544.6 339.999 545.6 339.899 546.6C340.099 546.4 340.199 546.2 340.399 546.1C342.599 543.8 339.099 540.3 336.799 542.6Z" fill="black"/>
<path d="M299.501 532.1C299.801 531.7 300.101 531.3 300.401 531C299.601 531.2 298.801 531.4 298.001 531.6C296.701 531 296.301 530 296.801 528.8C297.001 528.5 297.101 528.5 296.901 528.7C296.601 529 296.801 529 297.701 528.6C298.401 528.2 299.001 528.3 299.501 528.9C299.201 528.7 299.901 529.5 299.701 529.1C299.701 529 299.601 528.9 299.501 528.8C299.001 527.8 297.901 527 296.801 527.1C296.101 527.2 295.501 527.3 295.001 527.8C294.601 528.2 294.201 528.9 294.301 529.6C294.401 530.9 295.401 532.2 296.801 532.1C297.401 532.1 296.901 531.8 295.401 531.5C295.301 531.4 295.201 531.2 295.101 531.1C295.101 531.1 295.201 531.3 295.301 531.4C295.401 531.7 295.601 531.9 295.701 532.1C296.501 533.1 297.701 533.6 299.001 533.2C300.101 532.8 301.201 531.7 301.501 530.5C301.901 529 301.001 527.1 299.401 526.9C298.601 526.8 297.501 526.8 297.001 527.5C296.701 527.9 296.401 528.3 296.101 528.6C295.701 529.1 295.401 529.6 295.401 530.4C295.401 531 295.701 531.7 296.101 532.2C296.901 533 298.601 533.2 299.501 532.1Z" fill="black"/>
<path d="M400.002 342.5C403.102 330.4 407.602 318.7 413.602 307.7C416.202 303 418.902 296.9 422.702 292.9C425.902 289.5 428.702 291.1 432.602 292.7C436.002 294 439.302 295.6 442.602 297.2C442.202 296.3 441.802 295.3 441.502 294.4C438.302 304.2 437.902 314.7 435.402 324.7C432.802 334.8 428.202 344.3 423.602 353.6C422.202 356.5 426.502 359 427.902 356.1C432.402 346.9 437.002 337.6 439.802 327.7C442.702 317.2 443.002 306.1 446.402 295.7C446.702 294.7 446.202 293.3 445.302 292.9C441.902 291.2 438.502 289.6 435.002 288.2C432.102 287 428.102 284.8 424.802 285.2C419.502 285.9 415.902 294.5 413.502 298.4C405.502 311.7 399.502 326.1 395.602 341.2C394.402 344.3 399.202 345.7 400.002 342.5Z" fill="black"/>
<path d="M432.001 288.4C437.701 274.7 443.201 260.9 448.701 247C451.501 240 454.301 233.1 457.101 226.1C458.501 222.7 459.901 219.3 461.301 215.8C461.901 214.4 462.501 212 463.401 210.8C465.001 208.6 465.001 209.4 467.501 210.5C470.401 211.7 470.201 212.6 469.401 215.5C468.901 217.2 467.901 218.8 467.201 220.4C465.701 223.7 464.301 227.1 462.801 230.4C460.101 236.8 457.501 243.3 454.901 249.8C449.301 263.8 443.701 277.8 437.301 291.4C435.901 294.3 440.201 296.8 441.601 293.9C449.201 277.6 455.701 260.8 462.401 244.2C465.801 235.9 469.201 227.7 472.901 219.6C475.601 213.8 477.301 209.2 470.401 206.2C468.001 205.2 464.801 203.1 462.201 204.2C459.501 205.3 458.801 208.7 457.801 211.1C454.501 219.1 451.301 227.1 448.001 235.1C441.101 252.4 434.301 269.8 427.101 287C425.901 290 430.701 291.3 432.001 288.4Z" fill="black"/>
<path d="M243.501 612.3C241.401 607.9 239.101 603.2 239.701 598.2C240.401 592.6 244.701 589.1 250.301 590.8C253.401 591.7 254.701 586.9 251.601 586C245.201 584.1 238.601 586.8 235.901 593C232.601 600.4 235.901 608.1 239.101 614.9C240.601 617.7 244.901 615.2 243.501 612.3Z" fill="black"/>
<path d="M328.9 772.9C326.8 768.8 324.7 764.7 321.9 761.1C319.4 757.8 316.4 754.9 314.1 751.5C309.1 744.1 307.5 735.9 308.7 727.2C309.1 724.1 304.3 722.7 303.9 725.9C302.7 734.4 303.5 742.5 307.4 750.2C309.5 754.2 312.3 757.6 315.2 761C319.1 765.4 321.8 770.3 324.5 775.5C326.1 778.3 330.4 775.8 328.9 772.9Z" fill="black"/>
<path d="M438.5 780.1C422.4 749 423.7 712.6 425.7 678.7C427.8 642.9 432.1 607.2 434.4 571.5C435.7 551.5 436.4 531.5 435.7 511.5C435.6 508.3 430.6 508.3 430.7 511.5C432 548 428.7 584.4 425.4 620.8C422.2 656.3 417.8 692.5 420.3 728.2C421.6 747.1 425.5 765.8 434.3 782.7C435.7 785.5 440 783 438.5 780.1Z" fill="black"/>
<path d="M412.901 631C407.301 609.5 405.701 587.2 400.401 565.7C397.901 555.7 394.801 543.9 388.801 535.3C383.701 527.8 375.901 536.8 372.301 541.6C359.201 559.3 362.301 584.9 365.801 605.2C367.901 617.4 372.401 629.8 370.701 642.3C369.201 653.1 362.901 662.4 357.201 671.4C350.701 681.7 345.101 692.2 342.201 704.2C339.201 716.3 340.901 730.1 335.101 741.4C333.601 744.3 338.001 746.8 339.401 743.9C343.701 735.4 343.901 726.1 345.001 716.8C346.301 705.6 349.601 694.8 354.901 684.9C363.901 668.2 377.101 653.8 376.001 633.6C375.401 622.9 372.101 612.5 370.401 601.9C368.601 590.6 367.401 578.7 368.501 567.3C369.501 556.8 373.101 545.9 381.501 539C384.701 536.3 385.001 538.4 386.501 541.5C387.801 544.1 389.001 546.7 390.001 549.3C391.901 554 393.401 558.8 394.701 563.7C400.801 586.2 402.201 609.7 408.101 632.3C408.801 635.5 413.701 634.2 412.901 631Z" fill="black"/>
<path d="M308.699 694C308.399 696 307.399 697.9 305.899 699.2C304.599 700.3 302.899 700.6 301.499 701.4C299.299 702.7 298.599 705.2 299.599 707.5C300.599 709.9 302.799 711.1 305.399 711.2C307.399 711.3 309.299 710.8 311.299 710.6C314.099 710.4 316.799 710.6 319.499 711.2C322.599 711.9 323.999 707.1 320.799 706.4C317.399 705.7 314.099 705.3 310.599 705.7C309.099 705.8 307.399 706.4 305.899 706.3C301.899 706 305.299 705.4 306.199 704.9C310.599 702.8 313.099 698.8 313.699 694C314.099 690.9 309.099 690.9 308.699 694Z" fill="black"/>
<path d="M385.199 540.4C379.199 549.5 375.399 558.7 380.399 569.3C384.199 577.4 394.099 573.6 399.099 568.8C401.399 566.5 397.899 563 395.599 565.3C392.899 567.9 390.499 569.5 386.999 567.9C384.499 566.7 384.499 566.6 383.799 564.2C383.299 562.3 382.799 560.5 382.899 558.5C382.999 552.8 386.499 547.7 389.599 543.1C391.299 540.3 386.999 537.8 385.199 540.4Z" fill="black"/>
</g>
<defs>
<clipPath id="clip0">
<rect x="53" y="204" width="544" height="580" fill="white"/>
</clipPath>
</defs>
</svg>
