<svg width="80" height="80" viewBox="0 0 80 80" fill="none" xmlns="http://www.w3.org/2000/svg">
<path d="M11.957 23.0259C6.14474 29.5547 5.94432 34.5215 5.58356 43.2533C5.2228 51.9851 8.79031 60.797 15.0836 66.8853C16.1658 67.9668 17.3684 68.9281 18.7713 69.609C20.3747 70.37 22.2186 70.6103 23.9823 70.8507C28.1511 71.4114 32.2798 71.9321 36.4486 72.4929C44.9465 73.6144 54.1659 74.6158 61.5414 70.2899C67.1532 67.0054 70.8009 61.0774 72.6047 54.869C74.4085 48.6606 74.649 42.0917 74.7693 35.6029C74.8494 31.8779 74.8895 28.0327 73.5667 24.5479C71.4824 19.1006 66.4317 15.3355 61.2608 12.6919C56.5709 10.2886 51.5604 8.52624 46.3895 7.44478C41.7397 6.48347 36.8494 6.08293 32.2397 7.28456C23.9823 9.44749 23.0203 9.56765 17.6089 16.1366C17.0878 16.8175 13.4802 21.3436 11.957 23.0259Z" fill="#3C5A99"/>
<mask id="mask0" mask-type="alpha" maskUnits="userSpaceOnUse" x="5" y="6" width="70" height="68">
<path d="M11.957 23.0259C6.14474 29.5547 5.94432 34.5215 5.58356 43.2533C5.2228 51.9851 8.79031 60.797 15.0836 66.8853C16.1658 67.9668 17.3684 68.9281 18.7713 69.609C20.3747 70.37 22.2186 70.6103 23.9823 70.8507C28.1511 71.4114 32.2798 71.9321 36.4486 72.4929C44.9465 73.6144 54.1659 74.6158 61.5414 70.2899C67.1532 67.0054 70.8009 61.0774 72.6047 54.869C74.4085 48.6606 74.649 42.0917 74.7693 35.6029C74.8494 31.8779 74.8895 28.0327 73.5667 24.5479C71.4824 19.1006 66.4317 15.3355 61.2608 12.6919C56.5709 10.2886 51.5604 8.52624 46.3895 7.44478C41.7397 6.48347 36.8494 6.08293 32.2397 7.28456C23.9823 9.44749 23.0203 9.56765 17.6089 16.1366C17.0878 16.8175 13.4802 21.3436 11.957 23.0259Z" fill="#3C5A99"/>
</mask>
<g mask="url(#mask0)">
<rect x="27.5625" y="19.4956" width="37.6471" height="54.4538"/>
</g>
</svg>
